<mxfile host="app.diagrams.net" agent="Mozilla/5.0 (Windows NT 10.0; Win64; x64; rv:130.0) Gecko/20100101 Firefox/130.0" version="24.7.14">
  <diagram name="Page-1" id="wgzvAZn2yoKb2TKaMWSL">
    <mxGraphModel dx="893" dy="472" grid="1" gridSize="10" guides="1" tooltips="1" connect="1" arrows="1" fold="1" page="1" pageScale="1" pageWidth="827" pageHeight="1169" math="0" shadow="0">
      <root>
        <mxCell id="0" />
        <mxCell id="1" parent="0" />
        <mxCell id="blseRwbx58rJyiNCGp1Q-30" value="" style="rounded=1;whiteSpace=wrap;html=1;dashed=1;" vertex="1" parent="1">
          <mxGeometry x="329" y="30" width="140" height="100" as="geometry" />
        </mxCell>
        <mxCell id="blseRwbx58rJyiNCGp1Q-29" value="" style="rounded=1;whiteSpace=wrap;html=1;dashed=1;" vertex="1" parent="1">
          <mxGeometry x="328" y="280" width="141" height="190" as="geometry" />
        </mxCell>
        <mxCell id="blseRwbx58rJyiNCGp1Q-28" value="" style="rounded=1;whiteSpace=wrap;html=1;dashed=1;" vertex="1" parent="1">
          <mxGeometry x="330" y="140" width="140" height="130" as="geometry" />
        </mxCell>
        <mxCell id="blseRwbx58rJyiNCGp1Q-1" value="Клиент" style="shape=umlActor;verticalLabelPosition=bottom;verticalAlign=top;html=1;outlineConnect=0;rounded=1;" vertex="1" parent="1">
          <mxGeometry x="384" y="40" width="30" height="60" as="geometry" />
        </mxCell>
        <mxCell id="blseRwbx58rJyiNCGp1Q-2" value="Web UI" style="rounded=1;whiteSpace=wrap;html=1;" vertex="1" parent="1">
          <mxGeometry x="339" y="160" width="120" height="30" as="geometry" />
        </mxCell>
        <mxCell id="blseRwbx58rJyiNCGp1Q-13" style="edgeStyle=orthogonalEdgeStyle;rounded=0;orthogonalLoop=1;jettySize=auto;html=1;exitX=0.75;exitY=0;exitDx=0;exitDy=0;entryX=0.75;entryY=1;entryDx=0;entryDy=0;" edge="1" parent="1" source="blseRwbx58rJyiNCGp1Q-4" target="blseRwbx58rJyiNCGp1Q-2">
          <mxGeometry relative="1" as="geometry" />
        </mxCell>
        <mxCell id="blseRwbx58rJyiNCGp1Q-14" style="edgeStyle=orthogonalEdgeStyle;rounded=0;orthogonalLoop=1;jettySize=auto;html=1;exitX=0.25;exitY=1;exitDx=0;exitDy=0;entryX=0.25;entryY=0;entryDx=0;entryDy=0;" edge="1" parent="1" source="blseRwbx58rJyiNCGp1Q-4" target="blseRwbx58rJyiNCGp1Q-5">
          <mxGeometry relative="1" as="geometry" />
        </mxCell>
        <mxCell id="blseRwbx58rJyiNCGp1Q-4" value="API Front" style="rounded=1;whiteSpace=wrap;html=1;" vertex="1" parent="1">
          <mxGeometry x="340.25" y="230" width="118.75" height="20" as="geometry" />
        </mxCell>
        <mxCell id="blseRwbx58rJyiNCGp1Q-15" style="edgeStyle=orthogonalEdgeStyle;rounded=0;orthogonalLoop=1;jettySize=auto;html=1;exitX=0.75;exitY=0;exitDx=0;exitDy=0;entryX=0.75;entryY=1;entryDx=0;entryDy=0;" edge="1" parent="1" source="blseRwbx58rJyiNCGp1Q-5" target="blseRwbx58rJyiNCGp1Q-4">
          <mxGeometry relative="1" as="geometry" />
        </mxCell>
        <mxCell id="blseRwbx58rJyiNCGp1Q-5" value="&lt;div&gt;API backend,&lt;/div&gt;&lt;div&gt;бизнес-логика&lt;br&gt;&lt;/div&gt;" style="rounded=1;whiteSpace=wrap;html=1;" vertex="1" parent="1">
          <mxGeometry x="339" y="300" width="120" height="60" as="geometry" />
        </mxCell>
        <mxCell id="blseRwbx58rJyiNCGp1Q-17" style="edgeStyle=orthogonalEdgeStyle;rounded=0;orthogonalLoop=1;jettySize=auto;html=1;exitX=0.85;exitY=0.05;exitDx=0;exitDy=0;exitPerimeter=0;entryX=0.75;entryY=1;entryDx=0;entryDy=0;" edge="1" parent="1" target="blseRwbx58rJyiNCGp1Q-5">
          <mxGeometry relative="1" as="geometry">
            <mxPoint x="420" y="403" as="sourcePoint" />
          </mxGeometry>
        </mxCell>
        <mxCell id="blseRwbx58rJyiNCGp1Q-6" value="DB" style="shape=datastore;whiteSpace=wrap;html=1;" vertex="1" parent="1">
          <mxGeometry x="370.25" y="400" width="60" height="60" as="geometry" />
        </mxCell>
        <mxCell id="blseRwbx58rJyiNCGp1Q-10" style="edgeStyle=orthogonalEdgeStyle;rounded=0;orthogonalLoop=1;jettySize=auto;html=1;exitX=0;exitY=1;exitDx=0;exitDy=0;exitPerimeter=0;" edge="1" parent="1" source="blseRwbx58rJyiNCGp1Q-1">
          <mxGeometry relative="1" as="geometry">
            <mxPoint x="369" y="160" as="targetPoint" />
            <Array as="points">
              <mxPoint x="369" y="100" />
            </Array>
          </mxGeometry>
        </mxCell>
        <mxCell id="blseRwbx58rJyiNCGp1Q-11" style="edgeStyle=orthogonalEdgeStyle;rounded=0;orthogonalLoop=1;jettySize=auto;html=1;exitX=0.75;exitY=0;exitDx=0;exitDy=0;entryX=1;entryY=1;entryDx=0;entryDy=0;entryPerimeter=0;" edge="1" parent="1" source="blseRwbx58rJyiNCGp1Q-2" target="blseRwbx58rJyiNCGp1Q-1">
          <mxGeometry relative="1" as="geometry">
            <Array as="points">
              <mxPoint x="429" y="100" />
            </Array>
          </mxGeometry>
        </mxCell>
        <mxCell id="blseRwbx58rJyiNCGp1Q-12" style="edgeStyle=orthogonalEdgeStyle;rounded=0;orthogonalLoop=1;jettySize=auto;html=1;exitX=0.25;exitY=1;exitDx=0;exitDy=0;entryX=0.25;entryY=0;entryDx=0;entryDy=0;" edge="1" parent="1" source="blseRwbx58rJyiNCGp1Q-2" target="blseRwbx58rJyiNCGp1Q-4">
          <mxGeometry relative="1" as="geometry" />
        </mxCell>
        <mxCell id="blseRwbx58rJyiNCGp1Q-18" style="edgeStyle=orthogonalEdgeStyle;rounded=0;orthogonalLoop=1;jettySize=auto;html=1;exitX=0.25;exitY=1;exitDx=0;exitDy=0;entryX=0.15;entryY=0.05;entryDx=0;entryDy=0;entryPerimeter=0;" edge="1" parent="1" source="blseRwbx58rJyiNCGp1Q-5">
          <mxGeometry relative="1" as="geometry">
            <mxPoint x="378" y="403" as="targetPoint" />
          </mxGeometry>
        </mxCell>
        <mxCell id="blseRwbx58rJyiNCGp1Q-19" value="Vue.js" style="strokeWidth=2;html=1;shape=mxgraph.flowchart.annotation_2;align=left;labelPosition=right;pointerEvents=1;" vertex="1" parent="1">
          <mxGeometry x="480" y="162.5" width="50" height="25" as="geometry" />
        </mxCell>
        <mxCell id="blseRwbx58rJyiNCGp1Q-21" value="" style="endArrow=none;html=1;rounded=0;exitX=1;exitY=0.5;exitDx=0;exitDy=0;entryX=0;entryY=0.5;entryDx=0;entryDy=0;entryPerimeter=0;" edge="1" parent="1" source="blseRwbx58rJyiNCGp1Q-2" target="blseRwbx58rJyiNCGp1Q-19">
          <mxGeometry width="50" height="50" relative="1" as="geometry">
            <mxPoint x="470" y="160" as="sourcePoint" />
            <mxPoint x="520" y="110" as="targetPoint" />
          </mxGeometry>
        </mxCell>
        <mxCell id="blseRwbx58rJyiNCGp1Q-23" value="" style="endArrow=none;html=1;rounded=0;entryX=0;entryY=0.5;entryDx=0;entryDy=0;entryPerimeter=0;edgeStyle=orthogonalEdgeStyle;" edge="1" parent="1" target="blseRwbx58rJyiNCGp1Q-19">
          <mxGeometry width="50" height="50" relative="1" as="geometry">
            <mxPoint x="460" y="240" as="sourcePoint" />
            <mxPoint x="550" y="210" as="targetPoint" />
            <Array as="points">
              <mxPoint x="460" y="241" />
              <mxPoint x="480" y="241" />
            </Array>
          </mxGeometry>
        </mxCell>
        <mxCell id="blseRwbx58rJyiNCGp1Q-24" value="FastAPI" style="strokeWidth=2;html=1;shape=mxgraph.flowchart.annotation_2;align=left;labelPosition=right;pointerEvents=1;" vertex="1" parent="1">
          <mxGeometry x="480" y="317.5" width="50" height="25" as="geometry" />
        </mxCell>
        <mxCell id="blseRwbx58rJyiNCGp1Q-25" value="PostgreSQL" style="strokeWidth=2;html=1;shape=mxgraph.flowchart.annotation_2;align=left;labelPosition=right;pointerEvents=1;" vertex="1" parent="1">
          <mxGeometry x="480" y="417.5" width="50" height="25" as="geometry" />
        </mxCell>
        <mxCell id="blseRwbx58rJyiNCGp1Q-26" value="" style="endArrow=none;html=1;rounded=0;exitX=1;exitY=0.5;exitDx=0;exitDy=0;entryX=0;entryY=0.5;entryDx=0;entryDy=0;entryPerimeter=0;" edge="1" parent="1" target="blseRwbx58rJyiNCGp1Q-25">
          <mxGeometry width="50" height="50" relative="1" as="geometry">
            <mxPoint x="429" y="430" as="sourcePoint" />
            <mxPoint x="490" y="400" as="targetPoint" />
          </mxGeometry>
        </mxCell>
        <mxCell id="blseRwbx58rJyiNCGp1Q-27" value="" style="endArrow=none;html=1;rounded=0;exitX=1;exitY=0.5;exitDx=0;exitDy=0;entryX=0;entryY=0.5;entryDx=0;entryDy=0;entryPerimeter=0;" edge="1" parent="1" source="blseRwbx58rJyiNCGp1Q-5" target="blseRwbx58rJyiNCGp1Q-24">
          <mxGeometry width="50" height="50" relative="1" as="geometry">
            <mxPoint x="490" y="400" as="sourcePoint" />
            <mxPoint x="540" y="350" as="targetPoint" />
          </mxGeometry>
        </mxCell>
      </root>
    </mxGraphModel>
  </diagram>
</mxfile>
